<?xml version="1.0" ?><svg viewBox="0 0 512 512" xmlns="http://www.w3.org/2000/svg"><defs><style>.cls-1{fill:#cea42b;}.cls-2{fill:#bb7630;}.cls-3{fill:#91642d;}.cls-4{fill:#c1813f;}.cls-5{fill:#e5e7e5;}.cls-6{fill:#d5d5d7;}.cls-7{fill:#54331d;}</style></defs><title/><g data-name="katman 11" id="katman_11"><polygon class="cls-1" points="269.2 410.67 135.17 368.23 165.73 470.45 269.2 502.62 372.67 470.45 403.23 368.23 269.2 410.67"/><polygon class="cls-2" points="151.97 9.38 208.44 110.17 115.51 31.54 151.97 9.38"/><polygon class="cls-3" points="115.51 31.54 115.51 179.51 208.44 110.17 115.51 31.54"/><polygon class="cls-2" points="386.91 9.38 329.96 110.17 423.37 31.54 386.91 9.38"/><polygon class="cls-3" points="423.37 31.54 422.89 179.51 329.96 110.17 423.37 31.54"/><polygon class="cls-2" points="422.89 179.51 329.96 110.17 269.2 110.17 208.44 110.17 115.51 179.51 109.79 226.69 208.44 388.96 242.03 251 269.2 251 296.36 251 329.96 388.96 428.61 226.69 422.89 179.51"/><polygon class="cls-4" points="242.03 251 296.36 251 329.96 388.96 269.2 368.23 208.44 388.96 242.03 251"/><polygon class="cls-5" points="109.79 226.69 73.33 319.98 208.44 447.58 208.44 388.96 109.79 226.69"/><polygon class="cls-5" points="428.61 226.69 465.06 319.98 329.96 447.58 329.96 388.96 428.61 226.69"/><polygon class="cls-6" points="208.44 388.96 269.2 368.23 329.96 388.96 329.96 447.58 208.44 447.58 208.44 388.96"/><polygon class="cls-7" points="269.2 388.96 242.39 400.22 242.39 432.39 269.2 432.39 296 432.39 296 400.22 269.2 388.96"/><path class="cls-7" d="M191.82,251a15,15,0,1,0,23.55,0Z"/><path class="cls-7" d="M323,251a15,15,0,1,0,23.55,0Z"/></g></svg>